<svg width="37" height="37" viewBox="0 0 37 37" fill="none" xmlns="http://www.w3.org/2000/svg">
<path d="M18.8698 11.3983C17.0303 11.4063 15.2693 12.1447 13.9742 13.451C12.6791 14.7574 11.9559 16.5248 11.9639 18.3643C11.9719 20.2038 12.7102 21.9648 14.0166 23.2599C15.323 24.5551 17.0903 25.2782 18.9298 25.2702C20.7694 25.2622 22.5304 24.5239 23.8255 23.2175C25.1206 21.9111 25.8437 20.1438 25.8358 18.3043C25.8278 16.4647 25.0894 14.7037 23.7831 13.4086C22.4767 12.1135 20.7093 11.3904 18.8698 11.3983ZM18.9193 22.8387C17.7243 22.8439 16.5761 22.3741 15.7274 21.5328C14.8787 20.6914 14.399 19.5473 14.3939 18.3523C14.3887 17.1572 14.8585 16.0091 15.6998 15.1604C16.5412 14.3117 17.6853 13.832 18.8803 13.8268C20.0754 13.8216 21.2235 14.2914 22.0722 15.1328C22.9209 15.9742 23.4006 17.1182 23.4058 18.3133C23.411 19.5083 22.9412 20.6565 22.0998 21.5052C21.2584 22.3539 20.1144 22.8336 18.9193 22.8387Z" fill="white" fill-opacity="0.78"/>
<path d="M26.0861 12.7292C26.9792 12.7253 27.7 11.9982 27.6961 11.1052C27.6923 10.2122 26.9652 9.49134 26.0722 9.4952C25.1791 9.49906 24.4583 10.2261 24.4622 11.1192C24.466 12.0122 25.1931 12.733 26.0861 12.7292Z" fill="white" fill-opacity="0.78"/>
<path d="M31.6625 9.44398C31.3114 8.54876 30.7772 7.73672 30.0941 7.05983C29.4111 6.38295 28.5943 5.85613 27.6959 5.51311C26.6447 5.12369 25.5351 4.91546 24.4142 4.8973C22.9695 4.84055 22.5119 4.82453 18.8489 4.84038C15.186 4.85623 14.7165 4.85826 13.2843 4.94546C12.1645 4.97214 11.0575 5.19 10.0111 5.58963C9.11551 5.94001 8.30306 6.47373 7.62586 7.15655C6.94866 7.83938 6.42168 8.65622 6.07872 9.55468C5.68922 10.6058 5.48149 11.7155 5.46441 12.8364C5.40616 14.2796 5.38864 14.7372 5.40449 18.4017C5.42034 22.0646 5.42236 22.5311 5.51257 23.9663C5.53993 25.0882 5.75621 26.1942 6.15526 27.244C6.50695 28.1391 7.0415 28.9511 7.72474 29.6279C8.40799 30.3048 9.22491 30.8316 10.1233 31.1749C11.1712 31.5801 12.2806 31.8036 13.4037 31.8357C14.8485 31.8924 15.306 31.91 18.969 31.8941C22.632 31.8783 23.1015 31.8762 24.5336 31.7875C25.6541 31.7599 26.7619 31.5426 27.8098 31.1449C28.705 30.7933 29.517 30.2589 30.194 29.576C30.8711 28.893 31.3984 28.0764 31.7422 27.1783C32.1322 26.1266 32.3389 25.0187 32.3565 23.8966C32.4148 22.4534 32.4323 21.9958 32.4164 18.3313C32.4006 14.6668 32.3986 14.2018 32.3084 12.7667C32.286 11.6302 32.0675 10.5061 31.6625 9.44398ZM29.8974 23.7498C29.8914 24.6142 29.7373 25.4713 29.4418 26.2837C29.2191 26.868 28.8765 27.3992 28.4362 27.8431C27.9958 28.2871 27.4674 28.6339 26.8849 28.8613C26.0841 29.1625 25.2375 29.3239 24.382 29.3387C22.9573 29.4108 22.5554 29.4291 18.9014 29.4449C15.2444 29.4607 14.8709 29.4623 13.4186 29.3861C12.5634 29.3793 11.7159 29.2252 10.9131 28.9304C10.3267 28.7095 9.79316 28.3678 9.34708 27.9277C8.90101 27.4875 8.5523 26.9586 8.32352 26.3751C8.02522 25.574 7.86386 24.7284 7.84619 23.8737C7.77553 22.449 7.75879 22.047 7.74298 18.3931C7.72716 14.7376 7.72555 14.3641 7.79876 12.9103C7.80471 12.0463 7.9588 11.1897 8.2543 10.3778C8.70668 9.1923 9.64014 8.25676 10.8217 7.79864C11.6223 7.49838 12.4682 7.33696 13.3231 7.32131C14.7493 7.25064 15.1498 7.23091 18.8052 7.21509C22.4607 7.19927 22.8357 7.19765 24.2865 7.27388C25.1422 7.28047 25.9903 7.43461 26.7935 7.72953C27.3779 7.95242 27.9092 8.29501 28.3533 8.73534C28.7975 9.17566 29.1447 9.70399 29.3726 10.2864C29.6709 11.0875 29.8323 11.9332 29.8499 12.7879C29.9206 14.2141 29.9388 14.6145 29.9546 18.27C29.9705 21.9239 29.9722 22.3169 29.9139 23.7512L29.8974 23.7513L29.8974 23.7498Z" fill="white" fill-opacity="0.78"/>
</svg>
