<svg width="21" height="22" viewBox="0 0 21 22" fill="none" xmlns="http://www.w3.org/2000/svg">
<path fill-rule="evenodd" clip-rule="evenodd" d="M11.6435 5.98759C11.3111 5.98903 10.9881 6.03146 10.6796 6.11002C10.8707 4.3156 11.5795 2.67592 12.6552 1.34219C16.9582 1.8333 20.3101 5.47874 20.3293 9.91708L20.3567 16.2435C20.184 16.2539 20.01 16.2596 19.8348 16.2603C16.3942 16.2752 13.3864 14.3925 11.8061 11.5934L15.6348 11.5768L15.6277 9.93742C15.6182 7.74651 13.8344 5.97811 11.6435 5.98759Z" fill="white"/>
<path fill-rule="evenodd" clip-rule="evenodd" d="M0.95513 10.5487C0.932086 5.22307 5.23071 0.887082 10.5564 0.864039C13.2192 0.852517 15.6346 1.92141 17.3872 3.6589C15.7716 2.05723 13.5927 1.02373 11.176 0.880983C9.55875 2.68651 8.5795 5.07448 8.59081 7.6893C8.59165 7.88435 8.598 8.07808 8.6097 8.27037C7.99031 8.82144 7.60159 9.62574 7.60545 10.52L7.60833 11.185L13.5936 11.1591L9.22291 11.178C10.6628 15.0529 14.4022 17.8061 18.7764 17.7872C19.2848 17.785 19.7843 17.7454 20.2723 17.6711L20.29 21.7708L13.6397 21.7996L13.6224 17.8094L7.63711 17.8353L7.65437 21.8255L1.00405 21.8543L0.972394 14.5389L0.95513 10.5487Z" fill="white"/>
</svg>
