<svg width="37" height="38" viewBox="0 0 37 38" fill="none" xmlns="http://www.w3.org/2000/svg">
<path d="M30.3241 12.9933C30.3448 13.2557 30.3459 13.5167 30.347 13.7777C30.3816 21.7651 24.3419 30.9953 13.2316 31.0434C9.80859 31.0582 6.62433 30.0805 3.9409 28.3701C4.42714 28.4234 4.89522 28.4409 5.40071 28.4387C8.1202 28.4335 10.7587 27.5128 12.891 25.8248C11.63 25.8074 10.406 25.3967 9.38971 24.65C8.37347 23.9034 7.61576 22.8579 7.2224 21.6598C7.59613 21.7137 7.97129 21.7496 8.36429 21.7479C8.90578 21.7455 9.44995 21.6682 9.95488 21.5355C8.58534 21.2651 7.35171 20.5287 6.46376 19.4516C5.57581 18.3744 5.08835 17.023 5.08427 15.627L5.08395 15.552C5.89138 15.997 6.82709 16.2734 7.81724 16.3067C6.9855 15.7591 6.30221 15.0142 5.82835 14.1384C5.35449 13.2626 5.10478 12.2831 5.1015 11.2874C5.09664 10.1654 5.39069 9.1351 5.9103 8.23584C7.43658 10.0968 9.33672 11.6164 11.4877 12.6962C13.6386 13.7761 15.9924 14.3921 18.3965 14.5044C18.3016 14.0548 18.2426 13.5885 18.2406 13.1205C18.2367 12.327 18.3893 11.5405 18.6897 10.8059C18.99 10.0714 19.4321 9.40326 19.9908 8.8397C20.5495 8.27615 21.2138 7.82824 21.9457 7.52157C22.6776 7.2149 23.4628 7.05549 24.2564 7.05245C25.9963 7.04492 27.57 7.76712 28.6791 8.94133C30.0306 8.67391 31.3256 8.17451 32.5067 7.46526C32.0619 8.86342 31.1225 10.0514 29.8647 10.8067C31.0637 10.6647 32.2348 10.3441 33.3391 9.85568C32.518 11.0639 31.4987 12.1247 30.3241 12.9933Z" fill="white" fill-opacity="0.78"/>
</svg>
